<svg width="580" height="400" xmlns="http://www.w3.org/2000/svg">
 <!-- Created with Method Draw - http://github.com/duopixel/Method-Draw/ -->

 <g>
  <title>background</title>
  <rect fill="#fff" id="canvas_background" height="402" width="582" y="-1" x="-1"/>
  <g display="none" overflow="visible" y="0" x="0" height="100%" width="100%" id="canvasGrid">
   <rect fill="url(#gridpattern)" stroke-width="0" y="0" x="0" height="100%" width="100%"/>
  </g>
 </g>
 <g>
  <title>Layer 1</title>
  <g stroke="null" id="svg_5">
   <path stroke="null" id="svg_4" fill="#ffffff" d="m136.533619,214.324124c-2.347712,-21.093537 -0.391352,-41.456378 4.929756,-60.277924c17.685151,-62.548919 73.166028,-108.547887 138.976078,-109.359284l0,-40.887882c0,-2.271593 2.738864,-3.48849 4.538604,-2.109394l81.147888,61.818821c1.329081,1.054697 1.329081,3.163891 0,4.137488l-81.069578,61.818821c-1.87805,1.379096 -4.538604,0.1622 -4.538604,-2.109394l0,-40.806783c-43.273454,0.730098 -80.208565,28.394318 -96.093777,67.497605c-6.025501,14.765157 -9.077207,31.07161 -8.216592,48.188664c1.173856,23.526932 9.70329,45.188766 23.16268,62.711916c7.199357,9.329474 5.477728,22.959033 -3.83421,30.016914c-8.842675,6.733082 -21.206519,4.867985 -28.014325,-4.056986c-16.667716,-21.578144 -27.779593,-47.864862 -30.98792,-76.582584zm234.286952,-78.531372c13.537899,17.44225 22.06833,39.184187 23.162281,62.711119c0.860814,17.199149 -2.269601,33.504806 -8.215596,48.188464c-15.885212,39.103287 -52.820522,66.8506 -96.093976,67.498203l0,-40.806982c0,-2.271593 -2.738864,-3.487095 -4.538604,-2.108198l-81.147689,61.817227c-1.330277,1.056092 -1.330277,3.16429 0,4.138684l81.069379,61.81922c1.87805,1.378897 4.538604,0.161403 4.538604,-2.110191l0,-40.888679c65.810648,-0.729301 121.369038,-46.729065 138.975879,-109.359284c5.320311,-18.82035 7.199357,-39.182992 4.929756,-60.27633c-3.130415,-28.719116 -14.241296,-55.004241 -30.90961,-76.583978c-6.886514,-8.923974 -19.171052,-10.789869 -28.014325,-4.056388c-9.233828,7.05808 -10.955456,20.68744 -3.756099,30.017113z"/>
  </g>
 </g>
</svg>